<svg width="90" height="90" viewBox="0 0 90 90" fill="none" xmlns="http://www.w3.org/2000/svg">
<circle cx="45" cy="45" r="45" fill="#FF3D3D"/>
<path d="M43.8977 37.6364C43.8977 38.5966 43.7131 39.4105 43.3438 40.0781C42.9744 40.7457 42.4744 41.2528 41.8438 41.5994C41.2159 41.946 40.5114 42.1193 39.7301 42.1193C38.946 42.1193 38.2401 41.9446 37.6122 41.5952C36.9844 41.2457 36.4858 40.7386 36.1165 40.0739C35.75 39.4062 35.5668 38.5937 35.5668 37.6364C35.5668 36.6761 35.75 35.8622 36.1165 35.1946C36.4858 34.527 36.9844 34.0199 37.6122 33.6733C38.2401 33.3267 38.946 33.1534 39.7301 33.1534C40.5114 33.1534 41.2159 33.3267 41.8438 33.6733C42.4744 34.0199 42.9744 34.527 43.3438 35.1946C43.7131 35.8622 43.8977 36.6761 43.8977 37.6364ZM41.7415 37.6364C41.7415 37.0682 41.6605 36.5881 41.4986 36.196C41.3395 35.804 41.1094 35.5071 40.8082 35.3054C40.5099 35.1037 40.1506 35.0028 39.7301 35.0028C39.3125 35.0028 38.9531 35.1037 38.652 35.3054C38.3509 35.5071 38.1193 35.804 37.9574 36.196C37.7983 36.5881 37.7188 37.0682 37.7188 37.6364C37.7188 38.2045 37.7983 38.6847 37.9574 39.0767C38.1193 39.4687 38.3509 39.7656 38.652 39.9673C38.9531 40.169 39.3125 40.2699 39.7301 40.2699C40.1506 40.2699 40.5099 40.169 40.8082 39.9673C41.1094 39.7656 41.3395 39.4687 41.4986 39.0767C41.6605 38.6847 41.7415 38.2045 41.7415 37.6364ZM47.2131 38.267V42H45.1293V35.4545H47.1108V36.6562H47.1832C47.3281 36.2557 47.5753 35.9418 47.9247 35.7145C48.2741 35.4844 48.6903 35.3693 49.1733 35.3693C49.6335 35.3693 50.0327 35.473 50.3707 35.6804C50.7116 35.8849 50.9759 36.1719 51.1634 36.5412C51.3537 36.9077 51.4474 37.3366 51.4446 37.8281V42H49.3608V38.2372C49.3636 37.8736 49.2713 37.5895 49.0838 37.3849C48.8991 37.1804 48.642 37.0781 48.3125 37.0781C48.0938 37.0781 47.9006 37.1264 47.733 37.223C47.5682 37.3168 47.4403 37.4517 47.3494 37.6278C47.2614 37.804 47.2159 38.017 47.2131 38.267Z" fill="white"/>
<path d="M13.9127 38.8896L5.362 37.1429L6.7945 31.2287L8.47291 31.5716L7.53697 35.4357L9.29053 35.7939L10.1532 32.2321L11.8358 32.5758L10.9731 36.1376L12.7308 36.4967L13.6668 32.6326L15.3452 32.9754L13.9127 38.8896Z" fill="white"/>
<path d="M13.1304 20.1436L16.3889 20.6532L16.435 20.6029L15.3405 17.7298L16.9348 15.9886L18.6101 20.5979L23.8999 21.2597L22.2653 23.0449L18.9545 22.5485L18.9084 22.5988L20.0092 25.509L18.3862 27.2816L16.7597 22.6188L11.5247 21.8973L13.1304 20.1436Z" fill="white"/>
<path d="M29.4557 18.1571L25.8789 10.1965L29.2501 8.91902C29.8611 8.68749 30.4408 8.60427 30.9893 8.66938C31.5392 8.73089 32.0282 8.92315 32.4562 9.24615C32.8831 9.56657 33.2194 10.0002 33.465 10.5469C33.7119 11.0963 33.8043 11.6238 33.7424 12.1295C33.682 12.6315 33.4752 13.0813 33.1223 13.4789C32.7693 13.8765 32.2807 14.1936 31.6564 14.4301L29.5763 15.2184L28.8951 13.7024L30.6086 13.0531C30.9062 12.9404 31.1318 12.7957 31.2857 12.6192C31.4422 12.4416 31.5315 12.2425 31.5536 12.0218C31.5745 11.7986 31.5303 11.5652 31.4208 11.3216C31.3102 11.0754 31.1629 10.8825 30.979 10.743C30.7939 10.6009 30.5782 10.5188 30.3321 10.4969C30.0859 10.4749 29.8154 10.5198 29.5206 10.6315L28.5482 11L31.4282 17.4097L29.4557 18.1571Z" fill="white"/>
<path d="M44.5746 6.27273V15H42.4652V6.27273H44.5746Z" fill="white"/>
<path d="M51.6917 15.5735L55.2685 7.61284L58.6397 8.89031C59.2507 9.12185 59.7297 9.42921 60.0767 9.81241C60.4276 10.194 60.6342 10.6302 60.6966 11.1208C60.7603 11.6089 60.6698 12.1251 60.4253 12.6692C60.1773 13.2212 59.843 13.6434 59.4225 13.9359C59.0031 14.2258 58.5208 14.3858 57.9758 14.4157C57.4318 14.4431 56.849 14.339 56.2274 14.1035L54.0955 13.2956L54.7766 11.7797L56.5419 12.4486C56.8395 12.5614 57.1047 12.6179 57.3377 12.6183C57.5746 12.617 57.7797 12.5583 57.9532 12.4421C58.1278 12.3233 58.2704 12.1408 58.3811 11.8946C58.4917 11.6484 58.5313 11.4254 58.4998 11.2255C58.4696 11.0229 58.3716 10.8433 58.2058 10.6864C58.0411 10.527 57.8114 10.3914 57.5165 10.2797L56.5442 9.91122L53.6642 16.3209L51.6917 15.5735ZM57.921 13.6763L58.3185 18.0846L56.1667 17.2692L55.809 12.8759L57.921 13.6763Z" fill="white"/>
<path d="M63.8972 21.2029L70.7103 15.7489L74.8997 20.1625L73.5623 21.2331L70.8252 18.3494L69.4279 19.4679L71.9509 22.1259L70.6102 23.1992L68.0873 20.5411L66.6867 21.6623L69.4238 24.546L68.0865 25.6165L63.8972 21.2029Z" fill="white"/>
<path d="M72.9742 34.5355L72.1548 31.4155L80.6756 29.5282L81.4939 32.6441C81.7198 33.5042 81.7437 34.2825 81.5656 34.979C81.391 35.6777 81.0292 36.2667 80.48 36.746C79.9335 37.2246 79.2179 37.5619 78.3331 37.7579C77.4455 37.9545 76.6384 37.9544 75.9117 37.7578C75.1857 37.5638 74.5702 37.1928 74.0653 36.6446C73.5631 36.0958 73.1994 35.3928 72.9742 34.5355ZM74.4464 33.0668L74.7094 34.0683C74.8335 34.5409 75.019 34.9229 75.2657 35.2143C75.516 35.5077 75.8462 35.6977 76.2563 35.7843C76.6699 35.8729 77.1833 35.8494 77.7962 35.7136C78.4092 35.5778 78.875 35.3845 79.1936 35.1337C79.515 34.8822 79.7125 34.5724 79.7861 34.2043C79.8631 33.8384 79.8381 33.4136 79.7111 32.93L79.4557 31.9573L74.4464 33.0668Z" fill="white"/>
<path d="M13.9127 38.8896L5.362 37.1429L6.7945 31.2287L8.47291 31.5716L7.53697 35.4357L9.29053 35.7939L10.1532 32.2321L11.8358 32.5758L10.9731 36.1376L12.7308 36.4967L13.6668 32.6326L15.3452 32.9754L13.9127 38.8896Z" fill="white"/>
<path d="M13.1304 20.1436L16.3889 20.6532L16.435 20.6029L15.3405 17.7298L16.9348 15.9886L18.6101 20.5979L23.8999 21.2597L22.2653 23.0449L18.9545 22.5485L18.9084 22.5988L20.0092 25.509L18.3862 27.2816L16.7597 22.6188L11.5247 21.8973L13.1304 20.1436Z" fill="white"/>
<path d="M29.4557 18.1571L25.8789 10.1965L29.2501 8.91902C29.8611 8.68749 30.4408 8.60427 30.9893 8.66938C31.5392 8.73089 32.0282 8.92315 32.4562 9.24615C32.8831 9.56657 33.2194 10.0002 33.465 10.5469C33.7119 11.0963 33.8043 11.6238 33.7424 12.1295C33.682 12.6315 33.4752 13.0813 33.1223 13.4789C32.7693 13.8765 32.2807 14.1936 31.6564 14.4301L29.5763 15.2184L28.8951 13.7024L30.6086 13.0531C30.9062 12.9404 31.1318 12.7957 31.2857 12.6192C31.4422 12.4416 31.5315 12.2425 31.5536 12.0218C31.5745 11.7986 31.5303 11.5652 31.4208 11.3216C31.3102 11.0754 31.1629 10.8825 30.979 10.743C30.7939 10.6009 30.5782 10.5188 30.3321 10.4969C30.0859 10.4749 29.8154 10.5198 29.5206 10.6315L28.5482 11L31.4282 17.4097L29.4557 18.1571Z" fill="white"/>
<path d="M44.5746 6.27273V15H42.4652V6.27273H44.5746Z" fill="white"/>
<path d="M51.6917 15.5735L55.2685 7.61284L58.6397 8.89031C59.2507 9.12185 59.7297 9.42921 60.0767 9.81241C60.4276 10.194 60.6342 10.6302 60.6966 11.1208C60.7603 11.6089 60.6698 12.1251 60.4253 12.6692C60.1773 13.2212 59.843 13.6434 59.4225 13.9359C59.0031 14.2258 58.5208 14.3858 57.9758 14.4157C57.4318 14.4431 56.849 14.339 56.2274 14.1035L54.0955 13.2956L54.7766 11.7797L56.5419 12.4486C56.8395 12.5614 57.1047 12.6179 57.3377 12.6183C57.5746 12.617 57.7797 12.5583 57.9532 12.4421C58.1278 12.3233 58.2704 12.1408 58.3811 11.8946C58.4917 11.6484 58.5313 11.4254 58.4998 11.2255C58.4696 11.0229 58.3716 10.8433 58.2058 10.6864C58.0411 10.527 57.8114 10.3914 57.5165 10.2797L56.5442 9.91122L53.6642 16.3209L51.6917 15.5735ZM57.921 13.6763L58.3185 18.0846L56.1667 17.2692L55.809 12.8759L57.921 13.6763Z" fill="white"/>
<path d="M63.8972 21.2029L70.7103 15.7489L74.8997 20.1625L73.5623 21.2331L70.8252 18.3494L69.4279 19.4679L71.9509 22.1259L70.6102 23.1992L68.0873 20.5411L66.6867 21.6623L69.4238 24.546L68.0865 25.6165L63.8972 21.2029Z" fill="white"/>
<path d="M72.9742 34.5355L72.1548 31.4155L80.6756 29.5282L81.4939 32.6441C81.7198 33.5042 81.7437 34.2825 81.5656 34.979C81.391 35.6777 81.0292 36.2667 80.48 36.746C79.9335 37.2246 79.2179 37.5619 78.3331 37.7579C77.4455 37.9545 76.6384 37.9544 75.9117 37.7578C75.1857 37.5638 74.5702 37.1928 74.0653 36.6446C73.5631 36.0958 73.1994 35.3928 72.9742 34.5355ZM74.4464 33.0668L74.7094 34.0683C74.8335 34.5409 75.019 34.9229 75.2657 35.2143C75.516 35.5077 75.8462 35.6977 76.2563 35.7843C76.6699 35.8729 77.1833 35.8494 77.7962 35.7136C78.4092 35.5778 78.875 35.3845 79.1936 35.1337C79.515 34.8822 79.7125 34.5724 79.7861 34.2043C79.8631 33.8384 79.8381 33.4136 79.7111 32.93L79.4557 31.9573L74.4464 33.0668Z" fill="white"/>
</svg>
